# xmcd
#
# Track frame offsets: 
#        150
#        15755
#        30105
#        41470
#        55250
#        79135
#        97590
#        112050
#        128675
#        149030
#        167355
#        184625
#
# Disc length: 2673 seconds
#
# Revision: 0
# Processed by: cddbd v1.5.2PL0 Copyright (c) Steve Scherf et al.
# Submitted via: ExactAudioCopy v0.99pb5
#
DISCID=840a6f0c
DTITLE=Nolan Struck - The Retta's Sessions
DYEAR=2006
DGENRE=Blues
TTITLE0=My Nerve Gone Bad
TTITLE1=Falling In Love With You
TTITLE2=Fire Don't Burn All The Time
TTITLE3=The Love You Share
TTITLE4=Juat A Matter Of Time
TTITLE5=Ghetto Cowboy
TTITLE6=Welfare Problems
TTITLE7=Stand By Me
TTITLE8=Let Me Be Your Man
TTITLE9=I Got Bills To Pay
TTITLE10=You Been Cheating On Me
TTITLE11=She's A Miracle Woman
EXTD=
EXTT0=
EXTT1=
EXTT2=
EXTT3=
EXTT4=
EXTT5=
EXTT6=
EXTT7=
EXTT8=
EXTT9=
EXTT10=
EXTT11=
PLAYORDER=
